<svg xmlns="http://www.w3.org/2000/svg" width="31" height="31">
    <path fill="#B2B2B2" fill-rule="evenodd" d="M15.125 30.375c-8.285 0-15-6.716-15-15 0-8.285 6.715-15 15-15s15 6.715 15 15c0 8.284-6.715 15-15 15zm0-27.657c-6.99 0-12.656 5.667-12.656 12.657s5.666 12.656 12.656 12.656 12.656-5.666 12.656-12.656S22.115 2.718 15.125 2.718zm0 20.157c-4.142 0-7.5-3.358-7.5-7.5 0-4.143 3.358-7.499 7.5-7.5 4.142.001 7.5 3.357 7.5 7.5 0 4.142-3.358 7.5-7.5 7.5zm0-1.649c.731 0 1.43-.137 2.077-.383-.307-1.606-.71-3.033-1.155-4.282-1.311.427-2.315 1.145-3.041 1.841-.706.677-1.15 1.33-1.358 1.67.974.724 2.174 1.154 3.477 1.154zm-5.851-5.851c0 1.435.521 2.744 1.383 3.764.308-.469.833-1.171 1.613-1.882.81-.738 1.905-1.478 3.294-1.942-.111-.27-.223-.528-.337-.776-2.08.657-4.134.755-5.311.763-.259 0-.473-.005-.639-.011l-.003.084zm.174-1.417c.131.003.286.007.468.007h.091c1.077 0 2.855-.123 4.621-.648-.868-1.649-1.682-2.704-2.089-3.184-1.521.754-2.671 2.145-3.091 3.825zm5.677-4.434c-.428 0-.842.051-1.244.139.508.649 1.25 1.713 2.019 3.2 1.093-.471 2.107-1.135 2.874-2.054-1.002-.803-2.269-1.285-3.649-1.285zm4.595 2.24c-.918 1.049-2.054 1.787-3.237 2.305.132.291.262.595.392.912.531-.094 1.095-.148 1.695-.148h.006c.745 0 1.545.088 2.392.267-.058-1.257-.517-2.408-1.248-3.336zm-1.146 4.406h-.017c-.421 0-.82.031-1.2.086.409 1.17.783 2.479 1.079 3.932 1.25-.863 2.146-2.195 2.434-3.742-.832-.189-1.599-.276-2.296-.276z"/>
</svg>
