<svg xmlns="http://www.w3.org/2000/svg" width="48" height="55">
    <path fill-rule="evenodd" d="M47.694 38.054c-.325.481-.855.75-1.462.75-.699 0-1.406-.389-1.767-.618l-.212-.162c-.04-.039-4.608-4.141-12.873-4.141-3.099 0-6.358.574-9.688 1.701-.113.037-.526.163-1.059.163-1.303 0-2.329-.743-2.754-1.993l-4.056-11.991c-.167-.366-.459-1.215-.102-2.145.21-.547.709-1.279 1.904-1.684.22-.064 13.412-3.816 16.339-15.477.384-1.153 1.064-2.391 2.317-2.391.501 0 1.406.208 1.88 1.611l4.061 12.018c2.065.637 3.706 2.213 4.402 4.271.697 2.057.342 4.305-.908 6.059l4.058 11.994c.099.238.484 1.193-.08 2.035zM40.361 23.36l-2.4-7.1-3.736-11.039c-3.998 11.288-16.203 15.11-17.619 15.518l4.085 12.067c3.684-1.263 7.268-1.886 10.686-1.886 6 0 10.277 1.893 12.671 3.335L40.361 23.36zm-15.442-1.444c-.517 0-.988-.342-1.132-.862-.171-.623.19-1.27.821-1.442.072-.02 7.051-1.996 7.648-6.699.082-.641.679-1.092 1.309-1.014.643.081 1.097.665 1.021 1.309-.795 6.264-9.007 8.572-9.355 8.668-.106.027-.212.04-.312.04zM16.25 40.723c0 3.64 3.67 5.42 2.41 8.062 4.338 4.4-1.086 5.341-1.086 5.341-1.765.6-2.082-1.257-2.082-1.257l-3.703-10.963c-.79-2.831-2.546-2.307-2.546-2.307-4.463 1.512-6.089-3.607-6.089-3.607L1.1 29.928c-1.491-4.405 2.997-6.144 2.997-6.144l5.764-1.952c1.86-.629 2.142 1.126 2.142 1.126l4.648 14.035c.39 1.174-.401 3.73-.401 3.73z"/>
</svg>
