<svg xmlns="http://www.w3.org/2000/svg" width="31" height="32">
    <path fill="#B2B2B2" fill-rule="evenodd" d="M15.416 31.5C6.902 31.5 0 24.598 0 16.083S6.902.667 15.416.667c8.515 0 15.417 6.901 15.417 15.416S23.931 31.5 15.416 31.5zm0-28.425c-7.184 0-13.007 5.824-13.007 13.008 0 7.185 5.823 13.008 13.007 13.008 7.185 0 13.008-5.823 13.008-13.008 0-7.184-5.823-13.008-13.008-13.008zm5.827 10.116h-.981v-1.902h-1.919v-.984h1.919V8.407h.981v1.898h1.887v.984h-1.887v1.902zm-6.009-4.188s1.364.844 1.364 2.494c0 1.65-.798 2.369-1.805 3.258-1.006.888-.419 1.417 1.154 2.537 1.573 1.12 2.014 3.599-.021 5.396-2.034 1.797-8.224 1.556-8.224-1.779 0-3.334 4.658-3.385 5.036-3.385.377 0 .441-.106.127-.444-.317-.336-.821-.993-.232-1.712-1.05.043-3.944-.529-3.944-3.194s2.79-3.806 3.795-3.806H17.5s-.23.191-.755.485c-.525.297-1.511.15-1.511.15zM9.485 20.296c0 1.544 1.112 2.58 3.188 2.58 2.073 0 3.295-.697 3.295-2.136 0-1.44-1.372-2.159-2.14-2.75-2.832 0-4.343.761-4.343 2.306zm2.79-11.42c-2.937 0-1.804 5.835.693 5.835 3.314 0 1.594-5.92-.693-5.835z"/>
</svg>
