<svg xmlns="http://www.w3.org/2000/svg" width="31" height="31">
    <path fill="#B2B2B2" fill-rule="evenodd" d="M15.25 30.5C6.827 30.5 0 23.673 0 15.25S6.827 0 15.25 0 30.5 6.827 30.5 15.25 23.673 30.5 15.25 30.5zm0-28.117c-7.107 0-12.867 5.76-12.867 12.867 0 7.106 5.76 12.867 12.867 12.867 7.106 0 12.867-5.761 12.867-12.867 0-7.107-5.761-12.867-12.867-12.867zm4.771 13.813c-.041-.224-.694-1.827-1.906-1.906-2.256-.298-2.859 1.662-2.859 1.906v6.672h-2.86V11.431h2.86v1.906c.16-.081 1.364-1.865 3.812-1.906 3.129.041 3.701 2.389 3.801 3.532v7.918l-2.848-.013v-6.672zm-12.39-4.765h2.859v11.437H7.631V11.431zm1.429-.953c-.789 0-1.429-.64-1.429-1.43 0-.79.64-1.43 1.429-1.43s1.43.64 1.43 1.43c0 .79-.641 1.43-1.43 1.43z"/>
</svg>
