<svg xmlns="http://www.w3.org/2000/svg" width="14" height="15">
    <path fill="#5A5A5A" fill-rule="evenodd" d="M9.333 7.499c0-1.285-1.048-2.333-2.333-2.333-1.285 0-2.334 1.048-2.334 2.333 0 1.286 1.049 2.334 2.334 2.334 1.285 0 2.333-1.048 2.333-2.334zM7 2.541c2.734 0 4.958 2.224 4.958 4.958 0 2.735-2.224 4.959-4.958 4.959-2.735 0-4.958-2.224-4.958-4.959 0-2.734 2.223-4.958 4.958-4.958zm7 4.958C14 3.635 10.864.5 7 .5 3.135.5 0 3.635 0 7.499 0 11.364 3.135 14.5 7 14.5c3.864 0 7-3.136 7-7.001z"/>
</svg>
