<svg xmlns="http://www.w3.org/2000/svg" width="57" height="47">
    <path fill-rule="evenodd" d="M16.965 26.945c0 6.329 5.131 11.459 11.46 11.459 6.329 0 11.46-5.13 11.46-11.459s-5.131-11.46-11.46-11.46c-6.329 0-11.46 5.131-11.46 11.46zM53.107 7.552H40.766C39.885 4.026 39.003.5 35.477.5H21.373c-3.526 0-4.408 3.526-5.289 7.052H3.743c-1.939 0-3.526 1.586-3.526 3.526v31.734c0 1.939 1.587 3.526 3.526 3.526h49.364c1.94 0 3.526-1.587 3.526-3.526V11.078c0-1.94-1.586-3.526-3.526-3.526zM28.425 42.591c-8.641 0-15.647-7.004-15.647-15.646 0-8.642 7.006-15.647 15.647-15.647 8.642 0 15.647 7.005 15.647 15.647s-7.005 15.646-15.647 15.646zM53.107 18.13h-7.052v-3.526h7.052v3.526z"/>
</svg>
