<svg xmlns="http://www.w3.org/2000/svg" width="55" height="55">
    <path fill="#222" fill-rule="evenodd" d="M39.312 51.125h-3.375c-1.862 0-3.375-1.513-3.375-3.375v-5.063H22.437v5.063c0 1.862-1.512 3.375-3.375 3.375h-3.375c-.933 0-1.687.756-1.687 1.687 0 .933.754 1.688 1.687 1.688h23.625c.933 0 1.688-.755 1.688-1.688 0-.931-.755-1.687-1.688-1.687zM51.547.499H3.453C1.823.499.5 1.917.5 3.664v32.484c0 1.747 1.323 3.164 2.953 3.164h48.094c1.63 0 2.953-1.417 2.953-3.164V3.664c0-1.747-1.323-3.165-2.953-3.165zm-.422 35.438H3.875V3.875h47.25v32.062z"/>
</svg>
