<svg xmlns="http://www.w3.org/2000/svg" width="40" height="40">
    <path fill="#FCAC45" fill-rule="evenodd" d="M20.002 40.006c-11.031 0-20.005-8.974-20.005-20.004 0-11.03 8.974-20.005 20.005-20.005 11.031 0 20.004 8.974 20.004 20.005 0 11.032-8.974 20.004-20.004 20.004zm0-38.652C9.72 1.354 1.354 9.72 1.354 20.002S9.72 38.65 20.002 38.65 38.65 30.284 38.65 20.002 30.284 1.354 20.002 1.354zm8.424 19.326h-7.745v7.745c0 .375-.304.678-.679.678-.374 0-.678-.303-.678-.678V20.68h-7.746c-.375 0-.678-.304-.678-.678 0-.375.303-.679.678-.679h7.746v-7.745c0-.374.304-.678.678-.678.375 0 .679.304.679.678v7.745h7.745c.374 0 .678.304.678.679 0 .374-.304.678-.678.678z"/>
</svg>
