<svg xmlns="http://www.w3.org/2000/svg" width="34" height="55">
    <path fill-rule="evenodd" d="M29.292 54.25H4.397c-2.424 0-4.394-1.946-4.394-4.341V4.337c0-2.394 1.97-4.341 4.394-4.341h24.895c2.424 0 4.393 1.947 4.393 4.341v45.572c0 2.395-1.969 4.341-4.393 4.341zm-12.448-1.628c1.311 0 2.381-1.056 2.381-2.351s-1.07-2.351-2.381-2.351c-1.31 0-2.38 1.056-2.38 2.351s1.07 2.351 2.38 2.351zm13.18-43.944c0-.398-.329-.724-.732-.724H4.397c-.403 0-.732.326-.732.724V45.57c0 .397.329.722.732.722h24.895c.403 0 .732-.325.732-.722V8.678zm-2.922 33.998h-9.526c-.4 0-.724-.321-.724-.717v-.013c0-.396.324-.718.724-.718h9.526c.401 0 .726.322.726.718v.013c0 .396-.325.717-.726.717zm0-3.617h-9.526c-.4 0-.724-.321-.724-.716v-.015c0-.395.324-.716.724-.716h9.526c.401 0 .726.321.726.716v.015c0 .396-.325.716-.726.716zm0-5.064h-9.526c-.4 0-.724-.321-.724-.716v-.015c0-.395.324-.715.724-.715h9.526c.401 0 .726.32.726.715v.015c0 .395-.325.716-.726.716zm0-3.616h-9.526c-.4 0-.724-.322-.724-.717v-.014c0-.395.324-.716.724-.716h9.526c.401 0 .726.321.726.716v.014c0 .396-.325.717-.726.717zm0-5.065h-9.526c-.4 0-.724-.321-.724-.716v-.014c0-.395.324-.716.724-.716h9.526c.401 0 .726.321.726.716v.014c0 .395-.325.716-.726.716zm0-3.616h-9.526c-.4 0-.724-.321-.724-.716v-.014c0-.397.324-.717.724-.717h9.526c.401 0 .726.321.726.717v.014c0 .395-.325.716-.726.716zm-.006-5.788H17.57c-.401 0-.726-.32-.726-.715v-.014c0-.396.325-.716.726-.716h9.526c.402 0 .725.32.725.716v.014c0 .395-.325.715-.725.715zm0-3.616H17.57c-.401 0-.726-.32-.726-.716v-.014c0-.396.325-.716.726-.716h9.526c.402 0 .725.32.725.716v.014c0 .396-.325.716-.725.716zM14.464 39.421c-.101 0-.196-.02-.288-.051l-1.505 1.912c.091.142.147.309.147.489 0 .499-.411.905-.916.905-.504 0-.915-.406-.915-.905 0-.077.012-.152.032-.223l-1.863-1.227c-.153.113-.342.185-.549.185-.12 0-.234-.025-.34-.067l-1.428 1.613c.075.132.122.28.122.443 0 .498-.411.904-.916.904-.505 0-.915-.406-.915-.904 0-.499.41-.905.915-.905.12 0 .234.025.34.067l1.429-1.614c-.075-.131-.122-.28-.122-.442 0-.499.41-.904.915-.904.505 0 .916.405.916.904 0 .078-.013.152-.032.224l1.863 1.226c.152-.113.342-.184.548-.184.102 0 .198.02.289.051l1.505-1.912c-.092-.143-.146-.309-.146-.49 0-.499.41-.904.914-.904.505 0 .916.406.916.904 0 .499-.411.905-.916.905zm-2.745-29.297h2.197v7.234h-2.197v-7.234zM9.751 36.2v-.769c-1.092-.126-1.694-.787-1.694-.787l.594-.812s.651.627 1.499.627c.456 0 .871-.234.871-.719 0-1.004-2.862-.904-2.862-2.701 0-.863.652-1.531 1.592-1.683v-.786h.729v.77c.981.084 1.49.611 1.49.611l-.474.878s-.575-.519-1.33-.519c-.508 0-.906.293-.906.71 0 .997 2.854.821 2.854 2.695 0 .854-.601 1.581-1.634 1.716v.769h-.729zm4.116-12.452c-.246 1.499-1.484 2.723-3.002 2.966-2.032.323-3.819-1.009-4.197-2.846h3.587c.404 0 .732-.324.732-.723v-3.543c1.86.372 3.208 2.137 2.88 4.146zM8.79 13.018h2.197v4.34H8.79v-4.34zm1.465 9.765c0 .199-.164.362-.366.362H6.594c0-1.997 1.639-3.617 3.661-3.617v3.255zm-4.393-7.596h2.195v2.17H5.862v-2.17z"/>
</svg>
