<svg xmlns="http://www.w3.org/2000/svg" width="33" height="32">
    <path fill="#B2B2B2" fill-rule="evenodd" d="M16.5 32C7.801 32 .75 24.949.75 16.25S7.801.5 16.5.5s15.75 7.051 15.75 15.75S25.199 32 16.5 32zm0-29.039C9.16 2.961 3.211 8.91 3.211 16.25c0 7.339 5.949 13.289 13.289 13.289s13.289-5.95 13.289-13.289c0-7.34-5.949-13.289-13.289-13.289zm6.299 9.845l.002.053-.002.043.002.02c.219 5.643-3.852 10.218-9.094 10.218-1.844 0-3.587-.567-5.082-1.547 2.2.376 3.979-.804 4.5-1.452-1.462 0-2.801-1.346-2.904-2.376.295.049.97.112 1.352-.11-1.984-.585-2.529-2.2-2.506-3.418.332.347 1.037.426 1.419.394-1.118-.744-1.97-2.786-.985-4.623 1.603 2.249 4.448 3.563 6.882 3.63h.001c-.053-.251-.083-.512-.083-.779 0-1.933 1.455-3.5 3.249-3.5.925 0 1.757.416 2.35 1.082l-.001-.002c.519 0 1.569-.459 2.027-.773-.174.719-.879 1.624-1.355 1.9.743-.079 1.538-.393 1.804-.55-.459.818-1.099 1.44-1.576 1.79z"/>
</svg>
